# Blender 4.4.1
# www.blender.org
mtllib clear.mtl
o Cube
v 0.675807 0.488289 -0.523334
v 0.675807 -0.488289 -0.523334
v 0.675807 0.488289 0.523334
v 0.675807 -0.488289 0.523334
v -0.675807 0.488289 -0.523334
v -0.675807 -0.488289 -0.523334
v -0.675807 0.488289 0.523334
v -0.675807 -0.488289 0.523334
vn -0.0000 1.0000 -0.0000
vn -0.0000 -0.0000 1.0000
vn -1.0000 -0.0000 -0.0000
vn -0.0000 -1.0000 -0.0000
vn 1.0000 -0.0000 -0.0000
vn -0.0000 -0.0000 -1.0000
vt 0.749568 0.500000
vt 0.500000 0.749568
vt 0.500000 0.500000
vt 0.250432 0.999135
vt 0.250432 0.749568
vt 0.500000 0.000864
vt 0.250432 0.250432
vt 0.250432 0.000864
vt 0.250432 0.500000
vt 0.000865 0.749568
vt 0.000865 0.500000
vt 0.500000 0.250432
vt 0.749568 0.749568
vt 0.500000 0.999135
s 0
usemtl Material
f 5/1/1 3/2/1 1/3/1
f 3/2/2 8/4/2 4/5/2
f 7/6/3 6/7/3 8/8/3
f 2/9/4 8/10/4 6/11/4
f 1/3/5 4/5/5 2/9/5
f 5/12/6 2/9/6 6/7/6
f 5/1/1 7/13/1 3/2/1
f 3/2/2 7/14/2 8/4/2
f 7/6/3 5/12/3 6/7/3
f 2/9/4 4/5/4 8/10/4
f 1/3/5 3/2/5 4/5/5
f 5/12/6 1/3/6 2/9/6
