# Blender 4.4.1
# www.blender.org
mtllib player.mtl
o 球
v -0.032050 0.219572 -0.340181
v 0.000000 0.076765 -0.402866
v 0.000000 0.000000 -0.410759
v 0.000000 -0.076765 -0.402866
v -0.032050 -0.219572 -0.340181
v 0.021636 0.326381 -0.229441
v 0.063827 0.218607 -0.334971
v 0.070921 0.150579 -0.372200
v 0.075290 0.076765 -0.395125
v 0.076765 0.000000 -0.402866
v 0.075290 -0.076765 -0.395125
v 0.070921 -0.150579 -0.372200
v 0.063827 -0.218607 -0.334971
v 0.084426 -0.277830 -0.278361
v 0.009717 0.386009 -0.081011
v 0.029016 0.363553 -0.156520
v 0.084426 0.277830 -0.278361
v 0.139117 0.150579 -0.350604
v 0.147686 0.076765 -0.372200
v 0.150579 0.000000 -0.379491
v 0.147686 -0.076765 -0.372200
v 0.139117 -0.150579 -0.350604
v 0.044103 -0.363267 -0.151817
v 0.104330 0.327601 -0.201012
v 0.156536 0.221494 -0.299651
v 0.201967 0.150579 -0.315536
v 0.214407 0.076765 -0.334971
v 0.218607 0.000000 -0.341533
v 0.214407 -0.076765 -0.334971
v 0.201967 -0.150579 -0.315536
v 0.156536 -0.221494 -0.299651
v 0.085129 -0.326394 -0.214775
v 0.095258 0.363948 -0.121204
v 0.174163 0.280030 -0.225433
v 0.257055 0.150579 -0.268341
v 0.272888 0.076765 -0.284869
v 0.278234 0.000000 -0.290450
v 0.272888 -0.076765 -0.284869
v 0.257055 -0.150579 -0.268341
v 0.174163 -0.280030 -0.225433
v 0.035023 -0.386009 -0.073001
v 0.257012 0.219556 -0.212666
v 0.302264 0.150579 -0.210834
v 0.320882 0.076765 -0.223820
v 0.327169 0.000000 -0.228205
v 0.320882 -0.076765 -0.223820
v 0.302264 -0.150579 -0.210834
v 0.257012 -0.219556 -0.212666
v 0.183393 -0.329256 -0.123890
v 0.000000 0.393482 0.000000
v 0.061740 0.386008 -0.050121
v 0.141656 0.363230 -0.061287
v 0.183393 0.329256 -0.123890
v 0.243506 0.278864 -0.141770
v 0.335858 0.150579 -0.145225
v 0.356545 0.076765 -0.154170
v 0.363530 0.000000 -0.157190
v 0.356545 -0.076765 -0.154170
v 0.335858 -0.150579 -0.145225
v 0.243506 -0.278864 -0.141770
v 0.116255 -0.364979 -0.099672
v 0.315433 0.219552 -0.093728
v 0.362257 0.151567 -0.043996
v 0.378506 0.076765 -0.078595
v 0.385922 0.000000 -0.080135
v 0.378506 -0.076765 -0.078595
v 0.315433 -0.219552 -0.093728
v 0.152725 -0.363550 0.000817
v 0.218424 0.327455 -0.018440
v 0.276952 0.278865 -0.033624
v 0.385922 0.076765 0.000000
v 0.393482 0.000000 0.000000
v 0.385922 -0.076765 0.000000
v 0.362257 -0.151567 -0.043996
v 0.276952 -0.278865 -0.033624
v 0.218424 -0.327455 -0.018440
v 0.150114 0.363666 0.016772
v 0.325766 0.219549 0.039558
v 0.378506 0.076765 0.078595
v 0.385922 0.000000 0.080135
v 0.378506 -0.076765 0.078595
v 0.325766 -0.219549 0.039558
v 0.076952 -0.386099 -0.018348
v 0.077607 0.386008 0.010149
v 0.209434 0.326967 0.069472
v 0.268172 0.278866 0.079660
v 0.350761 0.151570 0.104253
v 0.356545 0.076765 0.154170
v 0.363530 0.000000 0.157191
v 0.356545 -0.076765 0.154170
v 0.350761 -0.151570 0.104253
v 0.286408 -0.219548 0.166793
v 0.268172 -0.278866 0.079660
v 0.209434 -0.326967 0.069472
v 0.286408 0.219548 0.166793
v 0.302264 0.150579 0.210834
v 0.320882 0.076765 0.223820
v 0.327168 0.000000 0.228205
v 0.320882 -0.076765 0.223820
v 0.302264 -0.150579 0.210834
v 0.124938 0.364377 0.087191
v 0.167409 0.328030 0.146507
v 0.218524 0.278868 0.180765
v 0.257055 0.150579 0.268341
v 0.272888 0.076765 0.284869
v 0.278234 0.000000 0.290450
v 0.272888 -0.076765 0.284869
v 0.257055 -0.150579 0.268341
v 0.218524 -0.278868 0.180765
v 0.167409 -0.328030 0.146507
v 0.124756 -0.364079 0.088548
v 0.043596 0.386119 0.068142
v 0.203431 0.219550 0.268533
v 0.201967 0.150579 0.315536
v 0.214407 0.076765 0.334971
v 0.218607 0.000000 0.341533
v 0.214407 -0.076765 0.334971
v 0.201967 -0.150579 0.315536
v 0.203431 -0.219550 0.268533
v 0.101006 0.326970 0.203728
v 0.135639 0.278870 0.254290
v 0.089575 0.219554 0.329335
v 0.139117 0.150579 0.350604
v 0.147686 0.076765 0.372200
v 0.150579 0.000000 0.379491
v 0.147686 -0.076765 0.372200
v 0.139117 -0.150579 0.350604
v 0.135639 -0.278870 0.254290
v 0.101006 -0.326970 0.203728
v 0.071623 -0.363267 0.139921
v 0.070921 0.150579 0.372200
v 0.075290 0.076765 0.395125
v 0.076764 0.000000 0.402866
v 0.075290 -0.076765 0.395125
v 0.070921 -0.150579 0.372200
v 0.089575 -0.219554 0.329335
v 0.046244 0.364338 0.151428
v 0.019169 0.328032 0.227163
v 0.032170 0.278870 0.289108
v -0.037832 0.219557 0.340067
v 0.000000 0.150579 0.379491
v -0.000000 0.076765 0.402866
v -0.000000 0.000000 0.410758
v -0.000000 -0.076765 0.402866
v 0.000000 -0.150579 0.379491
v 0.032170 -0.278870 0.289108
v 0.019169 -0.328032 0.227163
v 0.046432 -0.386510 0.068099
v -0.055451 0.363532 0.148090
v -0.070921 0.150579 0.372200
v -0.075290 0.076765 0.395125
v -0.076765 0.000000 0.402866
v -0.075290 -0.076765 0.395125
v -0.070921 -0.150579 0.372200
v -0.037832 -0.219557 0.340067
v -0.002595 -0.364131 0.157778
v -0.076176 0.278868 0.279978
v -0.139117 0.150579 0.350604
v -0.147686 0.076765 0.372199
v -0.150579 0.000000 0.379491
v -0.147686 -0.076765 0.372199
v -0.139117 -0.150579 0.350604
v -0.076177 -0.278868 0.279978
v -0.067248 -0.327457 0.217715
v -0.089051 0.328191 0.209729
v -0.159511 0.219558 0.299132
v -0.201967 0.150579 0.315536
v -0.214407 0.076765 0.334971
v -0.218607 0.000000 0.341533
v -0.214407 -0.076765 0.334971
v -0.201967 -0.150579 0.315536
v -0.159511 -0.219558 0.299132
v -0.172980 0.278866 0.228267
v -0.257055 0.150579 0.268341
v -0.272888 0.076765 0.284869
v -0.278234 0.000000 0.290450
v -0.272888 -0.076765 0.284869
v -0.257055 -0.150579 0.268341
v -0.172980 -0.278866 0.228267
v -0.084757 -0.364080 0.130277
v 0.000000 -0.393482 0.000000
v -0.037726 0.386252 0.073727
v -0.116855 0.363454 0.100851
v -0.171631 0.326967 0.143264
v -0.257012 0.219556 0.212665
v -0.302264 0.150579 0.210834
v -0.320882 0.076765 0.223820
v -0.327168 0.000000 0.228205
v -0.320882 -0.076765 0.223820
v -0.302264 -0.150579 0.210834
v -0.257013 -0.219556 0.212665
v -0.159139 -0.328189 0.158218
v -0.044101 -0.386075 0.068934
v -0.243506 0.278864 0.141770
v -0.335858 0.150579 0.145225
v -0.356545 0.076765 0.154170
v -0.363530 0.000000 0.157190
v -0.356545 -0.076765 0.154170
v -0.335858 -0.150579 0.145225
v -0.243506 -0.278864 0.141770
v -0.209677 0.328029 0.064001
v -0.276952 0.278865 0.033624
v -0.315433 0.219552 0.093728
v -0.378506 0.076765 0.078595
v -0.385921 0.000000 0.080135
v -0.378506 -0.076765 0.078595
v -0.315433 -0.219552 0.093728
v -0.210774 -0.327455 0.062590
v -0.147396 0.364376 0.030622
v -0.362257 0.151567 0.043996
v -0.385922 0.076765 -0.000000
v -0.393482 0.000000 -0.000000
v -0.385922 -0.076765 -0.000000
v -0.362257 -0.151567 0.043996
v -0.276952 -0.278865 0.033624
v -0.145056 -0.364333 0.048337
v -0.077463 -0.386033 0.007967
v -0.077463 0.386033 0.007967
v -0.217670 0.327455 -0.026421
v -0.268172 0.278866 -0.079660
v -0.325766 0.219549 -0.039558
v -0.378506 0.076765 -0.078595
v -0.385921 0.000000 -0.080135
v -0.378506 -0.076765 -0.078595
v -0.356545 -0.150579 -0.074035
v -0.325766 -0.219549 -0.039558
v -0.268172 -0.278866 -0.079660
v -0.217670 -0.327455 -0.026421
v -0.350761 0.151570 -0.104253
v -0.356545 0.076765 -0.154170
v -0.363530 0.000000 -0.157191
v -0.356545 -0.076765 -0.154170
v -0.335858 -0.150579 -0.145225
v -0.191395 0.327455 -0.111401
v -0.286408 0.219548 -0.166793
v -0.302264 0.150579 -0.210834
v -0.320882 0.076765 -0.223820
v -0.327168 0.000000 -0.228205
v -0.320882 -0.076765 -0.223820
v -0.302264 -0.150579 -0.210834
v -0.286408 -0.219548 -0.166793
v -0.218524 -0.278868 -0.180765
v -0.191395 -0.327455 -0.111401
v -0.136712 0.363828 -0.072285
v -0.218524 0.278868 -0.180765
v -0.257055 0.150579 -0.268341
v -0.272888 0.076765 -0.284869
v -0.278234 0.000000 -0.290450
v -0.272888 -0.076765 -0.284869
v -0.257055 -0.150579 -0.268341
v -0.136712 -0.363828 -0.072285
v -0.135978 0.327456 -0.179386
v -0.203431 0.219550 -0.268532
v -0.201966 0.150579 -0.315535
v -0.214406 0.076765 -0.334971
v -0.218607 0.000000 -0.341533
v -0.214406 -0.076765 -0.334971
v -0.201966 -0.150579 -0.315535
v -0.203431 -0.219550 -0.268533
v -0.135978 -0.327456 -0.179386
v -0.056136 0.386075 -0.058630
v -0.061535 0.363796 -0.144861
v -0.135639 0.278870 -0.254290
v -0.125202 0.218607 -0.315535
v -0.139117 0.150579 -0.350604
v -0.147686 0.076765 -0.372199
v -0.150579 0.000000 -0.379491
v -0.147686 -0.076765 -0.372199
v -0.139117 -0.150579 -0.350604
v -0.125202 -0.218607 -0.315535
v -0.135639 -0.278870 -0.254290
v -0.061765 0.328020 -0.218366
v -0.070921 0.150579 -0.372199
v -0.075289 0.076765 -0.395125
v -0.076764 0.000000 -0.402866
v -0.075289 -0.076765 -0.395125
v -0.070921 -0.150579 -0.372199
v -0.046850 -0.364688 -0.150459
v -0.027355 0.278899 -0.290146
v 0.000000 0.150579 -0.379491
v 0.000000 -0.150579 -0.379491
v -0.027355 -0.278898 -0.290146
v -0.040416 -0.329073 -0.223722
v -0.046432 -0.386510 -0.068099
v -0.113777 0.070943 0.396853
v -0.061447 0.091837 0.250171
v -0.067698 0.085802 0.396853
v -0.046166 0.127439 0.396853
v -0.046166 0.135906 0.250171
v -0.067698 0.177543 0.250171
v -0.061447 0.171508 0.396853
v -0.113777 0.192401 0.250171
v -0.104872 0.192401 0.396853
v -0.157202 0.171508 0.250171
v -0.150951 0.177543 0.396853
v -0.172483 0.127439 0.250171
v -0.172483 0.135906 0.396853
v -0.150951 0.085802 0.250171
v -0.157202 0.091837 0.396853
v -0.104872 0.070943 0.250171
v 0.132385 0.070943 0.396853
v 0.184715 0.091837 0.250171
v 0.178464 0.085802 0.396853
v 0.199996 0.127439 0.396853
v 0.199996 0.135906 0.250171
v 0.178464 0.177543 0.250171
v 0.184715 0.171508 0.396853
v 0.132385 0.192401 0.250171
v 0.141290 0.192401 0.396853
v 0.088960 0.171508 0.250171
v 0.095211 0.177543 0.396853
v 0.073679 0.127439 0.250171
v 0.073679 0.135906 0.396853
v 0.095211 0.085802 0.250171
v 0.088960 0.091837 0.396853
v 0.141290 0.070943 0.250171
v 0.034975 0.312700 0.215008
v 0.054918 0.285574 0.241385
v 0.042631 0.256122 0.270018
v 0.005400 0.241654 0.284085
v -0.034975 0.250558 0.275427
v -0.054918 0.277688 0.249053
v -0.042631 0.307137 0.220417
v -0.005400 0.321605 0.206350
v 0.000000 0.445434 0.413692
vn 0.0075 -0.8996 -0.4366
vn 0.0976 0.3005 -0.9488
vn -0.0095 -0.9666 -0.2561
vn 0.1017 0.1017 -0.9896
vn -0.0000 -0.9948 -0.1019
vn 0.1017 -0.1017 -0.9896
vn 0.0975 -0.3005 -0.9488
vn 0.0517 -0.5124 -0.8572
vn 0.0759 0.7547 -0.6516
vn 0.0839 -0.6731 -0.7347
vn 0.0481 0.6417 -0.7654
vn 0.0595 -0.8021 -0.5942
vn 0.0894 0.4853 -0.8698
vn 0.2642 0.4841 -0.8342
vn 0.2880 0.2995 -0.9096
vn 0.3003 0.1014 -0.9484
vn 0.3003 -0.1014 -0.9484
vn 0.2880 -0.2995 -0.9096
vn 0.1456 0.8754 -0.4610
vn 0.2924 -0.5096 -0.8092
vn 0.2633 0.6172 -0.7415
vn 0.1288 0.9590 -0.2523
vn 0.4651 -0.2979 -0.8336
vn 0.3173 0.7582 -0.5696
vn 0.3543 -0.6915 -0.6295
vn 0.4345 0.4527 -0.7786
vn 0.2438 -0.8977 -0.3669
vn 0.4651 0.2979 -0.8336
vn 0.4848 0.1008 -0.8688
vn 0.0509 0.9950 -0.0857
vn 0.4848 -0.1008 -0.8688
vn 0.5611 0.5062 -0.6549
vn 0.6215 0.2957 -0.7254
vn 0.6473 0.1000 -0.7556
vn 0.6473 -0.1000 -0.7556
vn 0.6215 -0.2957 -0.7254
vn 0.3323 0.8720 -0.3594
vn 0.5655 -0.5182 -0.6416
vn 0.5302 0.5999 -0.5991
vn 0.3754 -0.8202 -0.4317
vn 0.7515 -0.2935 -0.5908
vn 0.5101 0.7548 -0.4123
vn 0.5683 -0.6812 -0.4616
vn 0.7033 0.4467 -0.5529
vn 0.7515 0.2935 -0.5908
vn 0.1997 -0.9676 -0.1548
vn 0.7823 0.0992 -0.6150
vn 0.0804 -0.9948 -0.0633
vn 0.7823 -0.0992 -0.6150
vn 0.2464 0.9524 -0.1794
vn 0.8515 0.2915 -0.4360
vn 0.8858 0.0984 -0.4535
vn 0.8858 -0.0984 -0.4535
vn 0.8515 -0.2915 -0.4360
vn 0.7714 -0.5113 -0.3789
vn 0.7245 0.5903 -0.3558
vn 0.7727 0.4964 -0.3956
vn 0.4836 0.8630 -0.1459
vn 0.5984 0.7795 -0.1851
vn 0.7033 -0.6768 -0.2175
vn 0.5987 -0.7792 -0.1856
vn 0.8720 0.4312 -0.2316
vn 0.4248 -0.8942 -0.1414
vn 0.9098 0.3199 -0.2644
vn 0.9557 0.0979 -0.2777
vn 0.0992 0.9947 -0.0261
vn 0.9557 -0.0979 -0.2777
vn 0.9257 -0.2890 -0.2442
vn 0.9636 0.2514 -0.0909
vn 0.9908 0.0976 -0.0935
vn 0.9908 -0.0976 -0.0935
vn 0.2974 0.9540 -0.0376
vn 0.8435 -0.5331 -0.0654
vn 0.8071 0.5871 -0.0626
vn 0.6456 0.7620 0.0500
vn 0.7353 -0.6754 0.0570
vn 0.6250 -0.7776 0.0682
vn 0.9125 0.4029 0.0708
vn 0.9434 0.3194 0.0890
vn 0.9908 0.0976 0.0935
vn 0.9908 -0.0976 0.0935
vn 0.9378 -0.3395 0.0727
vn 0.4896 0.8702 0.0549
vn 0.2635 -0.9606 0.0885
vn 0.9557 0.0979 0.2777
vn 0.1029 -0.9942 0.0316
vn 0.9557 -0.0979 0.2777
vn 0.2855 0.9539 0.0924
vn 0.8074 -0.5346 0.2498
vn 0.7724 0.5885 0.2389
vn 0.4223 -0.8972 0.1292
vn 0.9293 0.2520 0.2700
vn 0.6595 -0.6784 0.3238
vn 0.5543 -0.7796 0.2916
vn 0.8204 0.4296 0.3773
vn 0.8515 0.2915 0.4360
vn 0.8858 0.0984 0.4535
vn 0.0892 0.9947 0.0504
vn 0.8858 -0.0984 0.4535
vn 0.8584 -0.3290 0.3936
vn 0.4335 0.8728 0.2244
vn 0.5776 0.7654 0.2836
vn 0.7823 -0.0992 0.6150
vn 0.7515 -0.2935 0.5908
vn 0.6643 -0.5150 0.5418
vn 0.6235 0.5938 0.5085
vn 0.6814 0.4987 0.5357
vn 0.7515 0.2935 0.5908
vn 0.7823 0.0992 0.6150
vn 0.3969 -0.7853 0.4752
vn 0.5810 0.4499 0.6782
vn 0.3058 -0.8929 0.3304
vn 0.6215 0.2957 0.7254
vn 0.6473 0.1000 0.7556
vn 0.6473 -0.1000 0.7556
vn 0.1972 0.9500 0.2422
vn 0.6215 -0.2957 0.7254
vn 0.2823 0.8955 0.3442
vn 0.4225 0.7712 0.4763
vn 0.4840 -0.6841 0.5456
vn 0.4848 -0.1008 0.8688
vn 0.4651 -0.2979 0.8336
vn 0.4021 -0.5210 0.7529
vn 0.3768 0.6001 0.7056
vn 0.4206 0.5048 0.7538
vn 0.4651 0.2979 0.8336
vn 0.4848 0.1008 0.8688
vn 0.1787 -0.7886 0.5884
vn 0.2688 0.4549 0.8490
vn 0.1139 -0.8955 0.4302
vn 0.2880 0.2995 0.9096
vn 0.3003 0.1014 0.9484
vn 0.3003 -0.1014 0.9484
vn 0.2880 -0.2995 0.9096
vn 0.1458 0.8708 0.4696
vn 0.2016 0.7749 0.5991
vn 0.2311 -0.6893 0.6866
vn 0.0976 -0.3004 0.9488
vn 0.0715 -0.5242 0.8486
vn 0.0669 0.6036 0.7945
vn 0.0881 0.5085 0.8566
vn 0.0976 0.3005 0.9488
vn 0.1017 0.1017 0.9896
vn 0.0086 0.9948 0.1020
vn 0.1017 -0.1017 0.9896
vn -0.0910 0.4561 0.8853
vn -0.0976 0.3004 0.9488
vn -0.0024 -0.9706 0.2409
vn -0.1017 0.1017 0.9896
vn -0.0038 -0.9945 0.1044
vn -0.1017 -0.1017 0.9896
vn -0.0171 0.9573 0.2884
vn -0.0976 -0.3005 0.9488
vn -0.0737 0.8820 0.4655
vn -0.0529 0.7768 0.6276
vn -0.0607 -0.6907 0.7206
vn -0.0716 -0.7913 0.6072
vn -0.2880 -0.2995 0.9096
vn -0.2718 -0.5226 0.8081
vn -0.2546 0.6021 0.7568
vn -0.2601 0.5075 0.8215
vn -0.1364 -0.9037 0.4058
vn -0.2880 0.2995 0.9096
vn -0.3003 0.1014 0.9484
vn -0.3003 -0.1014 0.9484
vn -0.4651 0.2979 0.8336
vn -0.4848 0.1008 0.8688
vn -0.4848 -0.1008 0.8688
vn -0.4651 -0.2979 0.8336
vn -0.3118 0.7498 0.5836
vn -0.3421 -0.6876 0.6405
vn -0.3191 -0.8034 0.5027
vn -0.4345 0.4526 0.7787
vn -0.5679 -0.5172 0.6403
vn -0.5325 0.5965 0.6005
vn -0.5625 0.5024 0.6566
vn -0.6215 0.2957 0.7254
vn -0.6473 0.1000 0.7556
vn -0.6473 -0.1000 0.7556
vn -0.1899 0.9507 0.2452
vn -0.6215 -0.2957 0.7254
vn -0.3053 0.8803 0.3631
vn -0.7823 0.0992 0.6150
vn -0.7823 -0.0992 0.6150
vn -0.7515 -0.2935 0.5908
vn -0.5115 0.7513 0.4170
vn -0.5670 -0.6817 0.4623
vn -0.7033 0.4467 0.5529
vn -0.3413 -0.9050 0.2540
vn -0.7515 0.2935 0.5908
vn -0.7245 0.5903 0.3558
vn -0.5246 -0.8050 0.2771
vn -0.7727 0.4964 0.3956
vn -0.8515 0.2915 0.4360
vn -0.2335 -0.9640 0.1271
vn -0.8858 0.0984 0.4535
vn -0.0904 0.9946 0.0513
vn -0.0906 -0.9947 0.0489
vn -0.8858 -0.0984 0.4535
vn -0.2380 0.9643 0.1162
vn -0.8515 -0.2915 0.4360
vn -0.4213 0.8813 0.2140
vn -0.7714 -0.5113 0.3789
vn -0.9557 0.0979 0.2777
vn -0.9557 -0.0979 0.2777
vn -0.9257 -0.2890 0.2442
vn -0.6348 0.7473 0.1963
vn -0.7033 -0.6768 0.2175
vn -0.8720 0.4312 0.2316
vn -0.9098 0.3199 0.2644
vn -0.8071 0.5871 0.0626
vn -0.6044 -0.7953 0.0468
vn -0.9636 0.2514 0.0909
vn -0.9908 0.0976 0.0935
vn -0.9908 -0.0976 0.0935
vn -0.4886 0.8717 0.0376
vn -0.8435 -0.5331 0.0654
vn -0.9908 -0.0976 -0.0935
vn -0.3065 0.9512 -0.0369
vn -0.9438 -0.3270 -0.0484
vn -0.6637 0.7462 -0.0514
vn -0.7353 -0.6754 -0.0570
vn -0.9125 0.4029 -0.0708
vn -0.4252 -0.9045 -0.0332
vn -0.9434 0.3194 -0.0890
vn -0.9908 0.0976 -0.0935
vn -0.7724 0.5885 -0.2389
vn -0.5778 -0.7964 -0.1787
vn -0.9293 0.2520 -0.2700
vn -0.2387 -0.9668 -0.0913
vn -0.9557 0.0979 -0.2777
vn -0.0988 0.9946 -0.0310
vn -0.0992 -0.9945 -0.0342
vn -0.9557 -0.0979 -0.2777
vn -0.9190 -0.2899 -0.2671
vn -0.4732 0.8687 -0.1463
vn -0.8219 -0.5098 -0.2542
vn -0.8858 -0.0984 -0.4535
vn -0.8515 -0.2915 -0.4360
vn -0.5947 0.7490 -0.2920
vn -0.6595 -0.6784 -0.3238
vn -0.8204 0.4296 -0.3773
vn -0.8515 0.2915 -0.4360
vn -0.8858 0.0984 -0.4535
vn -0.4647 -0.8003 -0.3788
vn -0.6814 0.4987 -0.5357
vn -0.7515 0.2935 -0.5908
vn -0.7823 0.0992 -0.6150
vn -0.7823 -0.0992 -0.6150
vn -0.7515 -0.2935 -0.5908
vn -0.3694 0.8791 -0.3011
vn -0.6643 -0.5150 -0.5418
vn -0.6235 0.5938 -0.5085
vn -0.6215 -0.2957 -0.7254
vn -0.4357 0.7542 -0.4912
vn -0.4840 -0.6841 -0.5456
vn -0.5810 0.4499 -0.6782
vn -0.2788 -0.9087 -0.3105
vn -0.6215 0.2957 -0.7254
vn -0.6473 0.1000 -0.7556
vn -0.6473 -0.1000 -0.7556
vn -0.2224 0.9472 -0.2308
vn -0.4651 0.2979 -0.8336
vn -0.4848 0.1008 -0.8688
vn -0.4848 -0.1008 -0.8688
vn -0.4651 -0.2979 -0.8336
vn -0.2300 0.8753 -0.4253
vn -0.4474 -0.4804 -0.7543
vn -0.3991 0.6186 -0.6767
vn -0.2580 -0.8100 -0.5266
vn -0.4206 0.5048 -0.7538
vn -0.2247 -0.5115 -0.8294
vn -0.2048 0.7593 -0.6177
vn -0.2326 -0.6731 -0.7020
vn -0.2026 0.6407 -0.7406
vn -0.2642 0.4841 -0.8342
vn -0.2880 0.2995 -0.9096
vn -0.3003 0.1014 -0.9484
vn -0.0315 0.9949 -0.0956
vn -0.3003 -0.1014 -0.9484
vn -0.2880 -0.2995 -0.9096
vn -0.0976 0.3005 -0.9488
vn -0.1018 0.1017 -0.9896
vn -0.1017 -0.1017 -0.9896
vn -0.0352 0.9554 -0.2931
vn -0.0976 -0.3005 -0.9488
vn -0.0423 0.8919 -0.4503
vn -0.0908 0.4608 -0.8828
vn -0.4335 0.9010 0.0186
vn -0.9446 0.3276 0.0189
vn -0.8881 -0.4593 0.0189
vn -0.3068 -0.9516 0.0186
vn 0.4335 -0.9010 0.0186
vn 0.9446 -0.3276 0.0189
vn 0.8881 0.4593 0.0189
vn 0.3068 0.9516 0.0186
vn 0.2871 0.8191 -0.4966
vn 0.8644 0.4749 -0.1651
vn 0.9362 -0.0528 0.3474
vn 0.4654 -0.4662 0.7524
vn -0.2871 -0.5195 0.8048
vn -0.8644 -0.1784 0.4701
vn -0.9362 0.3488 -0.0431
vn -0.4654 0.7652 -0.4448
vn -0.0000 -0.6971 -0.7170
vn 0.0528 -0.8763 -0.4788
vn 0.0975 0.3005 -0.9488
vn 0.0109 -0.9611 -0.2761
vn 0.0976 -0.3005 -0.9488
vn 0.0894 -0.4853 -0.8698
vn 0.0481 -0.6417 -0.7654
vn 0.0839 0.6731 -0.7347
vn 0.0715 -0.7923 -0.6059
vn 0.0517 0.5124 -0.8572
vn 0.2924 0.5096 -0.8092
vn 0.2642 -0.4841 -0.8342
vn 0.1823 0.8048 -0.5648
vn 0.2633 -0.6172 -0.7415
vn 0.1386 0.9625 -0.2334
vn 0.2009 0.8999 -0.3870
vn 0.4345 -0.4527 -0.7786
vn 0.3543 0.6915 -0.6295
vn 0.3219 -0.7507 -0.5769
vn 0.1626 -0.9529 -0.2562
vn 0.5655 0.5182 -0.6416
vn 0.3247 -0.8668 -0.3784
vn 0.5611 -0.5062 -0.6549
vn 0.4014 0.8093 -0.4288
vn 0.5302 -0.5999 -0.5991
vn 0.3471 0.9017 -0.2579
vn 0.7033 -0.4467 -0.5529
vn 0.5683 0.6812 -0.4616
vn 0.5101 -0.7548 -0.4123
vn 0.7727 -0.4964 -0.3956
vn 0.7245 -0.5903 -0.3558
vn 0.7714 0.5113 -0.3789
vn 0.8720 -0.4312 -0.2316
vn 0.5987 0.7792 -0.1856
vn 0.7033 0.6768 -0.2175
vn 0.5984 -0.7795 -0.1851
vn 0.4469 -0.8846 -0.1334
vn 0.9257 0.2890 -0.2442
vn 0.3065 -0.9468 -0.0978
vn 0.2644 0.9619 -0.0696
vn 0.9098 -0.3199 -0.2644
vn 0.9636 -0.2514 -0.0909
vn 0.4461 0.8934 -0.0533
vn 0.8071 -0.5871 -0.0626
vn 0.8435 0.5331 -0.0654
vn 0.9125 -0.4029 0.0708
vn 0.6250 0.7776 0.0682
vn 0.7353 0.6754 0.0570
vn 0.6456 -0.7620 0.0500
vn 0.4932 -0.8682 0.0552
vn 0.9378 0.3395 0.0727
vn 0.9434 -0.3194 0.0890
vn 0.2562 -0.9637 0.0758
vn 0.9293 -0.2520 0.2700
vn 0.4256 0.8935 0.1431
vn 0.7724 -0.5885 0.2389
vn 0.8074 0.5346 0.2498
vn 0.6595 0.6784 0.3238
vn 0.5776 -0.7654 0.2836
vn 0.4331 -0.8730 0.2242
vn 0.8584 0.3290 0.3936
vn 0.2272 0.9650 0.1314
vn 0.8515 -0.2915 0.4360
vn 0.8204 -0.4296 0.3773
vn 0.5543 0.7796 0.2916
vn 0.6814 -0.4987 0.5357
vn 0.6235 -0.5938 0.5085
vn 0.6643 0.5150 0.5418
vn 0.4840 0.6841 0.5456
vn 0.4225 -0.7712 0.4763
vn 0.2995 -0.8820 0.3638
vn 0.2110 -0.9493 0.2332
vn 0.2822 0.8947 0.3462
vn 0.5810 -0.4499 0.6782
vn 0.3969 0.7853 0.4752
vn 0.4206 -0.5048 0.7538
vn 0.3768 -0.6001 0.7056
vn 0.4021 0.5210 0.7529
vn 0.2016 -0.7749 0.5991
vn 0.1378 -0.8869 0.4410
vn 0.0789 -0.9562 0.2818
vn 0.2688 -0.4549 0.8490
vn 0.1787 0.7886 0.5884
vn 0.2311 0.6893 0.6866
vn 0.0189 0.9674 0.2524
vn 0.0976 -0.3005 0.9488
vn 0.0881 -0.5085 0.8566
vn 0.0669 -0.6036 0.7945
vn 0.0715 0.5242 0.8486
vn 0.0976 0.3004 0.9488
vn -0.0578 -0.8781 0.4750
vn -0.0976 0.3005 0.9488
vn -0.0976 -0.3004 0.9488
vn -0.0212 0.9045 0.4260
vn -0.0910 -0.4561 0.8853
vn -0.0928 0.8068 0.5835
vn -0.0607 0.6907 0.7206
vn -0.0529 -0.7768 0.6276
vn -0.2601 -0.5075 0.8215
vn -0.2546 -0.6021 0.7568
vn -0.2718 0.5226 0.8081
vn -0.0943 -0.9553 0.2800
vn -0.2631 -0.8700 0.4171
vn -0.4345 -0.4526 0.7787
vn -0.3421 0.6876 0.6405
vn -0.2992 -0.7726 0.5600
vn -0.5625 -0.5024 0.6566
vn -0.3757 0.8091 0.4519
vn -0.5325 -0.5965 0.6005
vn -0.5679 0.5172 0.6403
vn -0.2776 0.8909 0.3594
vn -0.2422 -0.9531 0.1812
vn -0.7033 -0.4467 0.5529
vn -0.5670 0.6817 0.4623
vn -0.5175 -0.7444 0.4219
vn -0.5395 0.7977 0.2696
vn -0.7245 -0.5903 0.3558
vn -0.7714 0.5113 0.3789
vn -0.4379 -0.8692 0.2298
vn -0.2488 0.9573 0.1471
vn -0.4156 0.8889 0.1924
vn -0.7727 -0.4964 0.3956
vn -0.9098 -0.3199 0.2644
vn -0.8720 -0.4312 0.2316
vn -0.7033 0.6768 0.2175
vn -0.6347 -0.7474 0.1963
vn -0.9257 0.2890 0.2442
vn -0.8071 -0.5871 0.0626
vn -0.8435 0.5331 0.0654
vn -0.4828 -0.8749 0.0374
vn -0.9636 -0.2514 0.0909
vn -0.6035 0.7959 0.0483
vn -0.9531 -0.2891 -0.0899
vn -0.4326 0.9002 -0.0497
vn -0.9032 -0.4267 -0.0473
vn -0.7353 0.6754 -0.0570
vn -0.6637 -0.7462 -0.0514
vn -0.9378 0.3395 -0.0727
vn -0.3196 -0.9472 -0.0261
vn -0.8074 0.5346 -0.2498
vn -0.4732 -0.8687 -0.1463
vn -0.2526 0.9642 -0.0803
vn -0.8350 -0.4939 -0.2426
vn -0.5778 0.7964 -0.1787
vn -0.7724 -0.5885 -0.2389
vn -0.7975 -0.4441 -0.4083
vn -0.6595 0.6784 -0.3238
vn -0.5947 -0.7490 -0.2920
vn -0.8584 0.3290 -0.3936
vn -0.6643 0.5150 -0.5418
vn -0.3694 -0.8791 -0.3011
vn -0.6814 -0.4987 -0.5357
vn -0.4647 0.8003 -0.3788
vn -0.6235 -0.5938 -0.5085
vn -0.2977 0.9033 -0.3088
vn -0.5810 -0.4499 -0.6782
vn -0.4840 0.6841 -0.5456
vn -0.4357 -0.7542 -0.4912
vn -0.2252 -0.9421 -0.2485
vn -0.2198 -0.8696 -0.4420
vn -0.4206 -0.5048 -0.7538
vn -0.2809 0.8046 -0.5232
vn -0.3991 -0.6186 -0.6767
vn -0.4474 0.4804 -0.7543
vn -0.2642 -0.4841 -0.8342
vn -0.2026 -0.6407 -0.7406
vn -0.2326 0.6731 -0.7020
vn -0.2039 -0.7615 -0.6153
vn -0.2247 0.5115 -0.8294
vn -0.0821 0.9662 -0.2445
vn -0.1017 0.1017 -0.9896
vn -0.1018 -0.1017 -0.9896
vn -0.0538 0.8979 -0.4369
vn -0.0908 -0.4608 -0.8828
vn -0.0616 0.8097 -0.5836
vn -0.3068 0.9516 -0.0186
vn -0.8881 0.4593 -0.0189
vn -0.9446 -0.3276 -0.0189
vn -0.4335 -0.9010 -0.0186
vn 0.3068 -0.9516 -0.0186
vn 0.8881 -0.4593 -0.0189
vn 0.9446 0.3276 -0.0189
vn 0.4335 0.9010 -0.0186
vn -0.0000 -0.0000 -1.0000
vn -0.0000 -0.0000 1.0000
vn -0.8881 0.4593 -0.0190
vn 0.0001 -0.6971 -0.7170
vn -0.0001 -0.6971 -0.7170
vt 0.170414 0.198831
vt 0.116451 0.264791
vt 0.116451 0.181298
vt 0.494196 0.224378
vt 0.548159 0.251359
vt 0.494196 0.251359
vt 0.062487 0.287905
vt 0.062487 0.139704
vt 0.440232 0.251359
vt 0.440232 0.224378
vt 0.008524 0.237869
vt 0.386269 0.251359
vt 0.386269 0.224378
vt 0.332305 0.251360
vt 0.332305 0.224378
vt 0.278342 0.251359
vt 0.278342 0.210913
vt 0.656087 0.210907
vt 0.710050 0.237843
vt 0.656087 0.266491
vt 0.224378 0.210907
vt 0.224378 0.266491
vt 0.602123 0.251359
vt 0.602123 0.210913
vt 0.170414 0.278295
vt 0.548159 0.224378
vt 0.548159 0.278341
vt 0.494196 0.278341
vt 0.440232 0.278341
vt 0.386269 0.278341
vt 0.332305 0.278341
vt 0.764014 0.250650
vt 0.710050 0.292579
vt 0.278342 0.292964
vt 0.602123 0.292964
vt 0.817977 0.241509
vt 0.764014 0.318782
vt 0.332305 0.305323
vt 0.656087 0.317631
vt 0.224378 0.317631
vt 0.548159 0.305323
vt 0.116451 0.345578
vt 0.494196 0.305323
vt 0.440232 0.305323
vt 0.871941 0.291832
vt 0.817977 0.349230
vt 0.386269 0.305323
vt 0.548159 0.332305
vt 0.494196 0.332305
vt 0.440232 0.332305
vt 0.386269 0.332305
vt 0.332305 0.332305
vt 0.710050 0.361243
vt 0.278342 0.348098
vt 0.602123 0.348098
vt 0.170414 0.361243
vt 0.332305 0.359287
vt 0.656087 0.370280
vt 0.224378 0.370280
vt 0.548159 0.359287
vt 0.494196 0.359287
vt 0.062487 0.409029
vt 0.440232 0.359287
vt 0.008524 0.345796
vt 0.386269 0.359287
vt 0.764014 0.385991
vt 0.548159 0.386269
vt 0.494196 0.386269
vt 0.440232 0.386269
vt 0.386269 0.386269
vt 0.332305 0.386269
vt 0.278342 0.402112
vt 0.602123 0.402112
vt 0.710050 0.429145
vt 0.656087 0.424306
vt 0.224378 0.424306
vt 0.170414 0.429144
vt 0.548159 0.424296
vt 0.116451 0.441037
vt 0.494196 0.413250
vt 0.440232 0.413250
vt 0.871941 0.399759
vt 0.817977 0.457475
vt 0.386269 0.413250
vt 0.332305 0.424296
vt 0.494196 0.440232
vt 0.440232 0.440232
vt 0.386269 0.440232
vt 0.764014 0.454897
vt 0.278342 0.456163
vt 0.602123 0.456163
vt 0.656087 0.478341
vt 0.224378 0.478341
vt 0.170414 0.482556
vt 0.548159 0.478362
vt 0.494196 0.467214
vt 0.440232 0.467214
vt 0.386269 0.467214
vt 0.332305 0.478362
vt 0.710050 0.482556
vt 0.062487 0.572074
vt 0.494196 0.494196
vt 0.440232 0.494196
vt 0.008524 0.480705
vt 0.386269 0.494196
vt 0.764014 0.521304
vt 0.278342 0.510203
vt 0.602123 0.510202
vt 0.116451 0.522424
vt 0.224378 0.532345
vt 0.170414 0.536131
vt 0.548159 0.521178
vt 0.494196 0.521178
vt 0.440232 0.521178
vt 0.871941 0.507687
vt 0.817977 0.575274
vt 0.386269 0.521178
vt 0.332305 0.521178
vt 0.710050 0.536131
vt 0.656087 0.532345
vt 0.386269 0.548159
vt 0.332305 0.548159
vt 0.278342 0.564189
vt 0.602123 0.564188
vt 0.548159 0.548159
vt 0.494196 0.548159
vt 0.440232 0.548159
vt 0.224378 0.586295
vt 0.170414 0.590519
vt 0.548159 0.575141
vt 0.116451 0.588719
vt 0.494196 0.575141
vt 0.440232 0.575141
vt 0.386269 0.575141
vt 0.764014 0.613831
vt 0.332305 0.575141
vt 0.710050 0.590519
vt 0.656087 0.586295
vt 0.386269 0.602123
vt 0.332305 0.602123
vt 0.278342 0.618104
vt 0.602123 0.618104
vt 0.548159 0.602123
vt 0.494196 0.602123
vt 0.440232 0.602123
vt 0.224378 0.640194
vt 0.170414 0.644018
vt 0.548159 0.629105
vt 0.116451 0.658391
vt 0.494196 0.629105
vt 0.440232 0.629105
vt 0.386269 0.629105
vt 0.332305 0.629105
vt 0.710050 0.644018
vt 0.656087 0.640194
vt 0.332305 0.656086
vt 0.278342 0.671975
vt 0.602123 0.671975
vt 0.548159 0.656086
vt 0.494196 0.656086
vt 0.440232 0.656086
vt 0.871941 0.642595
vt 0.817978 0.722867
vt 0.386269 0.656086
vt 0.548159 0.683068
vt 0.494196 0.683068
vt 0.062487 0.736907
vt 0.440232 0.683068
vt 0.008524 0.669577
vt 0.386269 0.683068
vt 0.764014 0.707247
vt 0.332305 0.683068
vt 0.710050 0.713349
vt 0.656087 0.694083
vt 0.224378 0.694083
vt 0.170414 0.698934
vt 0.332305 0.710050
vt 0.278342 0.725860
vt 0.602123 0.725860
vt 0.548159 0.710050
vt 0.116451 0.737969
vt 0.494196 0.710050
vt 0.440232 0.710050
vt 0.386269 0.710050
vt 0.548159 0.737032
vt 0.494196 0.737032
vt 0.440232 0.737032
vt 0.386269 0.737032
vt 0.332305 0.737032
vt 0.656087 0.748007
vt 0.224378 0.748007
vt 0.170414 0.767318
vt 0.332305 0.764014
vt 0.278342 0.779807
vt 0.602123 0.779807
vt 0.548159 0.764014
vt 0.494196 0.764014
vt 0.440232 0.764014
vt 0.386269 0.764014
vt 0.764014 0.776936
vt 0.710050 0.779207
vt 0.494196 0.790995
vt 0.440232 0.790995
vt 0.386269 0.790995
vt 0.332305 0.790995
vt 0.656087 0.801989
vt 0.224378 0.801989
vt 0.548159 0.790995
vt 0.116451 0.829373
vt 0.602123 0.833821
vt 0.170414 0.833844
vt 0.548159 0.817977
vt 0.494196 0.817977
vt 0.062487 0.851954
vt 0.440232 0.817977
vt 0.871941 0.804486
vt 0.817978 0.851954
vt 0.008524 0.804486
vt 0.386269 0.817977
vt 0.764014 0.844904
vt 0.332305 0.817977
vt 0.710050 0.832839
vt 0.278342 0.833821
vt 0.494196 0.844959
vt 0.440232 0.844959
vt 0.386269 0.844959
vt 0.332305 0.856005
vt 0.656087 0.856014
vt 0.224378 0.856014
vt 0.548159 0.856005
vt 0.602123 0.871941
vt 0.170414 0.871941
vt 0.494196 0.871941
vt 0.440232 0.871941
vt 0.386269 0.871941
vt 0.710050 0.871941
vt 0.278342 0.871941
vt 0.440232 0.008523
vt 0.386269 0.035505
vt 0.386269 0.008523
vt 0.764014 0.008523
vt 0.817977 0.022023
vt 0.764014 0.073116
vt 0.332305 0.035505
vt 0.332305 0.008523
vt 0.710050 0.024448
vt 0.656087 0.046632
vt 0.656087 0.008523
vt 0.278341 0.024454
vt 0.224378 0.046632
vt 0.224378 0.008523
vt 0.602123 0.024454
vt 0.548159 0.046654
vt 0.548159 0.008523
vt 0.170414 0.024448
vt 0.116451 0.073116
vt 0.116451 0.008523
vt 0.494196 0.008523
vt 0.494196 0.035505
vt 0.440232 0.035505
vt 0.602123 0.078494
vt 0.170414 0.078462
vt 0.494196 0.062487
vt 0.062487 0.022023
vt 0.440232 0.062487
vt 0.871941 0.048996
vt 0.817977 0.117080
vt 0.008524 0.048996
vt 0.386269 0.062487
vt 0.332305 0.062487
vt 0.710050 0.078462
vt 0.278341 0.078494
vt 0.386269 0.089469
vt 0.332305 0.089469
vt 0.656087 0.100637
vt 0.224378 0.100637
vt 0.548159 0.089469
vt 0.494196 0.089469
vt 0.440232 0.089469
vt 0.170414 0.132440
vt 0.548159 0.116451
vt 0.494196 0.116451
vt 0.440232 0.116451
vt 0.386269 0.116451
vt 0.332305 0.116451
vt 0.710050 0.132440
vt 0.278341 0.132480
vt 0.602123 0.132480
vt 0.332305 0.143432
vt 0.656087 0.154586
vt 0.224378 0.154586
vt 0.548159 0.143432
vt 0.494196 0.143432
vt 0.440232 0.143432
vt 0.386269 0.143432
vt 0.764014 0.167128
vt 0.548159 0.170414
vt 0.494196 0.170414
vt 0.440232 0.170414
vt 0.386269 0.170414
vt 0.332305 0.170414
vt 0.710050 0.184931
vt 0.278341 0.170414
vt 0.602123 0.170414
vt 0.332305 0.197396
vt 0.548159 0.197396
vt 0.494196 0.197396
vt 0.440232 0.197396
vt 0.871941 0.183905
vt 0.386269 0.197396
vt 0.991991 0.028646
vt 0.891909 0.033083
vt 0.891909 0.009907
vt 0.991991 0.053567
vt 0.891909 0.057959
vt 0.991991 0.078443
vt 0.891909 0.082880
vt 0.991991 0.103564
vt 0.891909 0.108042
vt 0.991991 0.128727
vt 0.891909 0.133164
vt 0.991991 0.153648
vt 0.891909 0.158040
vt 0.991991 0.178524
vt 0.891909 0.182961
vt 0.991991 0.201700
vt 0.891909 0.202189
vt 0.991991 0.238733
vt 0.891909 0.243170
vt 0.891909 0.219994
vt 0.991991 0.263654
vt 0.891909 0.268046
vt 0.991991 0.288530
vt 0.891909 0.292967
vt 0.991991 0.313652
vt 0.891909 0.318130
vt 0.991991 0.338814
vt 0.891909 0.343251
vt 0.991991 0.363735
vt 0.891909 0.368127
vt 0.991991 0.388611
vt 0.891909 0.393049
vt 0.991991 0.411787
vt 0.891909 0.412276
vt 0.871233 0.963497
vt 0.898295 0.898213
vt 0.925205 0.963558
vt 0.963558 0.925312
vt 0.963558 0.871111
vt 0.925356 0.832930
vt 0.871385 0.832869
vt 0.833031 0.871115
vt 0.833031 0.925317
vt 0.859008 0.472005
vt 0.876663 0.489649
vt 0.876733 0.429282
vt 0.991991 0.009418
vt 0.142164 0.876271
vt 0.142164 0.904330
vt 0.074852 0.876283
vt 0.122282 0.924068
vt 0.074852 0.904342
vt 0.094528 0.923988
vt 0.094734 0.856545
vt 0.122489 0.856625
vt 0.852017 0.586830
vt 0.871899 0.606568
vt 0.919329 0.586842
vt 0.919329 0.558782
vt 0.899653 0.606487
vt 0.899447 0.539045
vt 0.852017 0.558771
vt 0.871692 0.539125
vt 0.991991 0.219505
vt 0.914590 0.708833
vt 0.914590 0.736892
vt 0.847278 0.708845
vt 0.894708 0.756630
vt 0.847278 0.736904
vt 0.866954 0.756550
vt 0.867160 0.689107
vt 0.894914 0.689187
vt 0.741445 0.912229
vt 0.761327 0.931966
vt 0.808757 0.912240
vt 0.808757 0.884181
vt 0.789081 0.931886
vt 0.788875 0.864443
vt 0.741445 0.884169
vt 0.761120 0.864523
vt 0.901605 0.489677
vt 0.901675 0.429310
vt 0.919329 0.472002
vt 0.919329 0.446954
vt 0.859008 0.446956
s 0
usemtl マテリアル
f 283/1/1 23/2/1 278/3/1
f 2/4/2 8/5/2 9/6/2
f 278/3/3 41/7/3 284/8/3
f 2/4/4 10/9/4 3/10/4
f 181/11/5 284/8/5 41/7/5
f 3/10/6 11/12/6 4/13/6
f 4/13/7 12/14/7 281/15/7
f 281/15/8 13/16/8 5/17/8
f 279/18/9 6/19/9 17/20/9
f 282/21/10 13/16/10 14/22/10
f 279/18/11 7/23/11 1/24/11
f 282/21/12 32/25/12 283/1/12
f 280/26/13 7/23/13 8/5/13
f 7/23/14 18/27/14 8/5/14
f 9/6/15 18/27/15 19/28/15
f 9/6/16 20/29/16 10/9/16
f 10/9/17 21/30/17 11/12/17
f 11/12/18 22/31/18 12/14/18
f 16/32/19 24/33/19 6/19/19
f 13/16/20 22/31/20 31/34/20
f 17/20/21 25/35/21 7/23/21
f 15/36/22 33/37/22 16/32/22
f 21/30/23 30/38/23 22/31/23
f 24/33/24 34/39/24 17/20/24
f 14/22/25 31/34/25 40/40/25
f 25/35/26 26/41/26 18/27/26
f 23/2/27 32/25/27 61/42/27
f 19/28/28 26/41/28 27/43/28
f 20/29/29 27/43/29 28/44/29
f 15/36/30 50/45/30 51/46/30
f 20/29/31 29/47/31 21/30/31
f 25/35/32 35/48/32 26/41/32
f 27/43/33 35/48/33 36/49/33
f 28/44/34 36/49/34 37/50/34
f 28/44/35 38/51/35 29/47/35
f 29/47/36 39/52/36 30/38/36
f 33/37/37 53/53/37 24/33/37
f 31/34/38 39/52/38 48/54/38
f 25/35/39 34/39/39 42/55/39
f 32/25/40 40/40/40 49/56/40
f 38/51/41 47/57/41 39/52/41
f 53/53/42 54/58/42 34/39/42
f 48/54/43 60/59/43 40/40/43
f 42/55/44 43/60/44 35/48/44
f 36/49/45 43/60/45 44/61/45
f 61/42/46 83/62/46 41/7/46
f 37/50/47 44/61/47 45/63/47
f 181/64/48 41/7/48 83/62/48
f 37/50/49 46/65/49 38/51/49
f 33/37/50 51/46/50 52/66/50
f 44/61/51 55/67/51 56/68/51
f 45/63/52 56/68/52 57/69/52
f 45/63/53 58/70/53 46/65/53
f 46/65/54 59/71/54 47/57/54
f 48/54/55 59/71/55 67/72/55
f 42/55/56 54/58/56 62/73/56
f 42/55/57 55/67/57 43/60/57
f 53/53/58 52/66/58 69/74/58
f 53/53/59 70/75/59 54/58/59
f 67/72/60 75/76/60 60/59/60
f 49/56/61 75/76/61 76/77/61
f 62/73/62 63/78/62 55/67/62
f 49/56/63 68/79/63 61/42/63
f 56/68/64 63/78/64 64/80/64
f 57/69/65 64/80/65 65/81/65
f 51/46/66 50/82/66 84/83/66
f 57/69/67 66/84/67 58/70/67
f 58/70/68 74/85/68 59/71/68
f 64/80/69 63/78/69 71/86/69
f 65/81/70 71/86/70 72/87/70
f 65/81/71 73/88/71 66/84/71
f 84/83/72 77/89/72 52/66/72
f 67/72/73 74/85/73 82/90/73
f 62/73/74 70/75/74 78/91/74
f 69/74/75 86/92/75 70/75/75
f 82/90/76 93/93/76 75/76/76
f 76/77/77 93/93/77 94/94/77
f 78/91/78 87/95/78 63/78/78
f 71/86/79 87/95/79 79/96/79
f 72/87/80 79/96/80 80/97/80
f 72/87/81 81/98/81 73/88/81
f 73/88/82 91/99/82 74/85/82
f 69/74/83 77/89/83 85/100/83
f 68/79/84 148/101/84 83/62/84
f 80/97/85 88/102/85 89/103/85
f 181/104/86 83/62/86 148/101/86
f 80/97/87 90/105/87 81/98/87
f 84/83/88 101/106/88 77/89/88
f 82/90/89 91/99/89 92/107/89
f 78/91/90 86/92/90 95/108/90
f 68/79/91 94/94/91 111/109/91
f 79/96/92 87/95/92 88/102/92
f 92/107/93 109/110/93 93/93/93
f 94/94/94 109/110/94 110/111/94
f 95/108/95 96/112/95 87/95/95
f 88/102/96 96/112/96 97/113/96
f 89/103/97 97/113/97 98/114/97
f 84/83/98 50/115/98 112/116/98
f 89/103/99 99/117/99 90/105/99
f 90/105/100 100/118/100 91/99/100
f 101/106/101 102/119/101 85/100/101
f 85/100/102 103/120/102 86/92/102
f 98/114/103 107/121/103 99/117/103
f 99/117/104 108/122/104 100/118/104
f 92/107/105 108/122/105 119/123/105
f 95/108/106 103/120/106 113/124/106
f 95/108/107 104/125/107 96/112/107
f 97/113/108 104/125/108 105/126/108
f 98/114/109 105/126/109 106/127/109
f 110/111/110 128/128/110 129/129/110
f 113/124/111 114/130/111 104/125/111
f 110/111/112 130/131/112 111/109/112
f 105/126/113 114/130/113 115/132/113
f 106/127/114 115/132/114 116/133/114
f 106/127/115 117/134/115 107/121/115
f 101/106/116 112/116/116 137/135/116
f 107/121/117 118/136/117 108/122/117
f 102/119/118 137/135/118 120/137/118
f 102/119/119 121/138/119 103/120/119
f 119/123/120 128/128/120 109/110/120
f 116/133/121 126/139/121 117/134/121
f 117/134/122 127/140/122 118/136/122
f 119/123/123 127/140/123 136/141/123
f 113/124/124 121/138/124 122/142/124
f 113/124/125 123/143/125 114/130/125
f 115/132/126 123/143/126 124/144/126
f 116/133/127 124/144/127 125/145/127
f 129/129/128 146/146/128 147/147/128
f 122/142/129 131/148/129 123/143/129
f 130/131/130 147/147/130 156/149/130
f 124/144/131 131/148/131 132/150/131
f 125/145/132 132/150/132 133/151/132
f 125/145/133 134/152/133 126/139/133
f 126/139/134 135/153/134 127/140/134
f 137/135/135 138/154/135 120/137/135
f 120/137/136 139/155/136 121/138/136
f 136/141/137 146/146/137 128/128/137
f 134/152/138 145/156/138 135/153/138
f 136/141/139 145/156/139 155/157/139
f 122/142/140 139/155/140 140/158/140
f 122/142/141 141/159/141 131/148/141
f 132/150/142 141/159/142 142/160/142
f 133/151/143 142/160/143 143/161/143
f 112/116/144 50/162/144 182/163/144
f 133/151/145 144/164/145 134/152/145
f 140/158/146 150/165/146 141/159/146
f 142/160/147 150/165/147 151/166/147
f 156/149/148 193/167/148 148/101/148
f 143/161/149 151/166/149 152/168/149
f 181/169/150 148/101/150 193/167/150
f 143/161/151 153/170/151 144/164/151
f 137/135/152 182/163/152 149/171/152
f 144/164/153 154/172/153 145/156/153
f 138/154/154 149/171/154 165/173/154
f 138/154/155 157/174/155 139/155/155
f 155/157/156 163/175/156 146/146/156
f 147/147/157 163/175/157 164/176/157
f 153/170/158 162/177/158 154/172/158
f 155/157/159 162/177/159 172/178/159
f 140/158/160 157/174/160 166/179/160
f 140/158/161 158/180/161 150/165/161
f 156/149/162 164/176/162 180/181/162
f 151/166/163 158/180/163 159/182/163
f 152/168/164 159/182/164 160/183/164
f 152/168/165 161/184/165 153/170/165
f 159/182/166 167/185/166 168/186/166
f 160/183/167 168/186/167 169/187/167
f 160/183/168 170/188/168 161/184/168
f 161/184/169 171/189/169 162/177/169
f 165/173/170 173/190/170 157/174/170
f 172/178/171 179/191/171 163/175/171
f 164/176/172 179/191/172 192/192/172
f 166/179/173 167/185/173 158/180/173
f 172/178/174 178/193/174 191/194/174
f 166/179/175 173/190/175 185/195/175
f 166/179/176 174/196/176 167/185/176
f 168/186/177 174/196/177 175/197/177
f 169/187/178 175/197/178 176/198/178
f 169/187/179 177/199/179 170/188/179
f 182/163/180 183/200/180 149/171/180
f 170/188/181 178/193/181 171/189/181
f 165/173/182 183/200/182 184/201/182
f 176/198/183 187/202/183 188/203/183
f 176/198/184 189/204/184 177/199/184
f 177/199/185 190/205/185 178/193/185
f 184/201/186 194/206/186 173/190/186
f 191/194/187 200/207/187 179/191/187
f 185/195/188 186/208/188 174/196/188
f 192/192/189 216/209/189 180/181/189
f 175/197/190 186/208/190 187/202/190
f 185/195/191 194/206/191 203/210/191
f 192/192/192 200/207/192 208/211/192
f 185/195/193 195/212/193 186/208/193
f 187/202/194 195/212/194 196/213/194
f 193/167/195 216/209/195 217/214/195
f 188/203/196 196/213/196 197/215/196
f 182/163/197 50/216/197 218/217/197
f 181/218/198 193/167/198 217/214/198
f 188/203/199 198/219/199 189/204/199
f 182/163/200 209/220/200 183/200/200
f 189/204/201 199/221/201 190/205/201
f 183/200/202 201/222/202 184/201/202
f 191/194/203 199/221/203 207/223/203
f 197/215/204 204/224/204 205/225/204
f 197/215/205 206/226/205 198/219/205
f 198/219/206 214/227/206 199/221/206
f 201/222/207 202/228/207 194/206/207
f 207/223/208 215/229/208 200/207/208
f 203/210/209 210/230/209 195/212/209
f 196/213/210 210/230/210 204/224/210
f 203/210/211 202/228/211 221/231/211
f 208/211/212 215/229/212 228/232/212
f 204/224/213 210/230/213 211/233/213
f 205/225/214 211/233/214 212/234/214
f 205/225/215 213/235/215 206/226/215
f 201/222/216 209/220/216 219/236/216
f 207/223/217 214/227/217 226/237/217
f 212/238/218 224/239/218 213/240/218
f 209/241/219 218/242/219 244/243/219
f 213/240/220 225/244/220 214/245/220
f 219/246/221 220/247/221 202/248/221
f 226/249/222 227/250/222 215/251/222
f 221/252/223 229/253/223 210/254/223
f 228/255/224 251/256/224 216/257/224
f 211/258/225 229/253/225 222/259/225
f 212/238/226 222/259/226 223/260/226
f 221/252/227 220/247/227 235/261/227
f 228/255/228 227/250/228 243/262/228
f 222/259/229 229/253/229 230/263/229
f 251/256/230 284/8/230 217/264/230
f 223/260/231 230/263/231 231/265/231
f 218/242/232 50/266/232 261/267/232
f 181/268/233 217/264/233 284/8/233
f 223/260/234 232/269/234 224/239/234
f 224/239/235 233/270/235 225/244/235
f 219/246/236 244/243/236 234/271/236
f 226/249/237 233/270/237 241/272/237
f 231/265/238 239/273/238 232/269/238
f 232/269/239 240/274/239 233/270/239
f 234/271/240 245/275/240 220/247/240
f 241/272/241 242/276/241 227/250/241
f 235/261/242 236/277/242 229/253/242
f 230/263/243 236/277/243 237/278/243
f 231/265/244 237/278/244 238/279/244
f 243/262/245 242/276/245 260/280/245
f 235/261/246 246/281/246 236/277/246
f 237/278/247 246/281/247 247/282/247
f 238/279/248 247/282/248 248/283/248
f 238/279/249 249/284/249 239/273/249
f 239/273/250 250/285/250 240/274/250
f 234/271/251 244/243/251 252/286/251
f 241/272/252 250/285/252 259/287/252
f 235/261/253 245/275/253 253/288/253
f 249/284/254 258/289/254 250/285/254
f 252/286/255 263/290/255 245/275/255
f 259/287/256 271/291/256 242/276/256
f 253/288/257 254/292/257 246/281/257
f 260/280/258 278/3/258 251/256/258
f 247/282/259 254/292/259 255/293/259
f 248/283/260 255/293/260 256/294/260
f 248/283/261 257/295/261 249/284/261
f 261/267/262 262/296/262 244/243/262
f 255/293/263 265/297/263 266/298/263
f 256/294/264 266/298/264 267/299/264
f 256/294/265 268/300/265 257/295/265
f 257/295/266 269/301/266 258/289/266
f 252/286/267 262/296/267 272/302/267
f 259/287/268 269/301/268 270/303/268
f 253/288/269 263/290/269 264/304/269
f 260/280/270 271/291/270 283/1/270
f 253/288/271 265/297/271 254/292/271
f 270/303/272 277/305/272 5/17/272
f 272/302/273 279/18/273 263/290/273
f 270/303/274 282/21/274 271/291/274
f 264/304/275 279/18/275 1/24/275
f 264/304/276 273/306/276 265/297/276
f 266/298/277 273/306/277 274/307/277
f 267/299/278 274/307/278 275/308/278
f 261/267/279 50/309/279 15/36/279
f 267/299/280 276/310/280 268/300/280
f 268/300/281 277/305/281 269/301/281
f 274/307/282 280/26/282 2/4/282
f 275/308/283 2/4/283 3/10/283
f 275/308/284 4/13/284 276/310/284
f 15/36/285 16/32/285 262/296/285
f 276/310/286 281/15/286 277/305/286
f 272/302/287 16/32/287 6/19/287
f 273/306/288 1/24/288 280/26/288
f 287/311/289 286/312/289 300/313/289
f 288/314/290 289/315/290 286/312/290
f 291/316/291 290/317/291 289/315/291
f 293/318/292 292/319/292 290/317/292
f 295/320/293 294/321/293 292/319/293
f 297/322/294 296/323/294 294/321/294
f 299/324/295 298/325/295 296/323/295
f 285/326/296 300/327/296 298/325/296
f 303/328/289 302/329/289 316/330/289
f 304/331/290 305/332/290 302/329/290
f 307/333/291 306/334/291 305/332/291
f 309/335/292 308/336/292 306/334/292
f 311/337/293 310/338/293 308/336/293
f 313/339/294 312/340/294 310/338/294
f 315/341/295 314/342/295 312/340/295
f 301/343/296 316/344/296 314/342/296
f 324/345/297 325/346/297 317/347/297
f 317/347/298 325/346/298 318/348/298
f 318/348/299 325/346/299 319/349/299
f 319/349/300 325/346/300 320/350/300
f 320/350/301 325/346/301 321/351/301
f 321/351/302 325/346/302 322/352/302
f 322/352/303 325/346/303 323/353/303
f 323/353/304 325/346/304 324/345/304
f 323/354/305 324/355/305 321/356/305
f 283/1/306 32/25/306 23/2/306
f 2/4/307 280/26/307 8/5/307
f 278/3/308 23/2/308 41/7/308
f 2/4/4 9/6/4 10/9/4
f 3/10/6 10/9/6 11/12/6
f 4/13/309 11/12/309 12/14/309
f 281/15/310 12/14/310 13/16/310
f 282/21/311 5/17/311 13/16/311
f 279/18/312 17/20/312 7/23/312
f 282/21/313 14/22/313 32/25/313
f 280/26/314 1/24/314 7/23/314
f 7/23/315 25/35/315 18/27/315
f 9/6/15 8/5/15 18/27/15
f 9/6/16 19/28/16 20/29/16
f 10/9/17 20/29/17 21/30/17
f 11/12/18 21/30/18 22/31/18
f 13/16/316 12/14/316 22/31/316
f 6/19/317 24/33/317 17/20/317
f 14/22/318 13/16/318 31/34/318
f 15/36/319 51/46/319 33/37/319
f 21/30/23 29/47/23 30/38/23
f 16/32/320 33/37/320 24/33/320
f 31/34/321 22/31/321 30/38/321
f 17/20/322 34/39/322 25/35/322
f 32/25/323 14/22/323 40/40/323
f 19/28/28 18/27/28 26/41/28
f 41/7/324 23/2/324 61/42/324
f 20/29/29 19/28/29 27/43/29
f 20/29/31 28/44/31 29/47/31
f 25/35/325 42/55/325 35/48/325
f 61/42/326 32/25/326 49/56/326
f 27/43/33 26/41/33 35/48/33
f 28/44/34 27/43/34 36/49/34
f 28/44/35 37/50/35 38/51/35
f 29/47/36 38/51/36 39/52/36
f 31/34/327 30/38/327 39/52/327
f 24/33/328 53/53/328 34/39/328
f 31/34/329 48/54/329 40/40/329
f 38/51/41 46/65/41 47/57/41
f 53/53/330 33/37/330 52/66/330
f 48/54/331 39/52/331 47/57/331
f 42/55/332 34/39/332 54/58/332
f 49/56/333 40/40/333 60/59/333
f 36/49/45 35/48/45 43/60/45
f 37/50/47 36/49/47 44/61/47
f 37/50/49 45/63/49 46/65/49
f 44/61/51 43/60/51 55/67/51
f 45/63/52 44/61/52 56/68/52
f 45/63/53 57/69/53 58/70/53
f 46/65/54 58/70/54 59/71/54
f 48/54/334 47/57/334 59/71/334
f 48/54/335 67/72/335 60/59/335
f 42/55/336 62/73/336 55/67/336
f 67/72/337 59/71/337 74/85/337
f 53/53/338 69/74/338 70/75/338
f 62/73/339 54/58/339 70/75/339
f 49/56/340 60/59/340 75/76/340
f 49/56/341 76/77/341 68/79/341
f 56/68/342 55/67/342 63/78/342
f 61/42/343 68/79/343 83/62/343
f 57/69/65 56/68/65 64/80/65
f 57/69/67 65/81/67 66/84/67
f 51/46/344 84/83/344 52/66/344
f 58/70/345 66/84/345 74/85/345
f 65/81/70 64/80/70 71/86/70
f 65/81/71 72/87/71 73/88/71
f 66/84/346 73/88/346 74/85/346
f 52/66/347 77/89/347 69/74/347
f 67/72/348 82/90/348 75/76/348
f 62/73/349 78/91/349 63/78/349
f 82/90/350 74/85/350 91/99/350
f 69/74/351 85/100/351 86/92/351
f 78/91/352 70/75/352 86/92/352
f 76/77/353 75/76/353 93/93/353
f 76/77/354 94/94/354 68/79/354
f 71/86/355 63/78/355 87/95/355
f 72/87/80 71/86/80 79/96/80
f 72/87/81 80/97/81 81/98/81
f 73/88/356 81/98/356 91/99/356
f 68/79/357 111/109/357 148/101/357
f 80/97/85 79/96/85 88/102/85
f 80/97/87 89/103/87 90/105/87
f 81/98/358 90/105/358 91/99/358
f 77/89/359 101/106/359 85/100/359
f 82/90/360 92/107/360 93/93/360
f 78/91/361 95/108/361 87/95/361
f 95/108/362 86/92/362 103/120/362
f 94/94/363 93/93/363 109/110/363
f 111/109/364 94/94/364 110/111/364
f 88/102/365 87/95/365 96/112/365
f 89/103/97 88/102/97 97/113/97
f 89/103/99 98/114/99 99/117/99
f 84/83/366 112/116/366 101/106/366
f 90/105/367 99/117/367 100/118/367
f 92/107/368 91/99/368 100/118/368
f 85/100/369 102/119/369 103/120/369
f 98/114/103 106/127/103 107/121/103
f 99/117/104 107/121/104 108/122/104
f 92/107/370 100/118/370 108/122/370
f 92/107/371 119/123/371 109/110/371
f 95/108/372 113/124/372 104/125/372
f 97/113/108 96/112/108 104/125/108
f 98/114/109 97/113/109 105/126/109
f 113/124/373 103/120/373 121/138/373
f 110/111/374 109/110/374 128/128/374
f 110/111/375 129/129/375 130/131/375
f 105/126/113 104/125/113 114/130/113
f 111/109/376 130/131/376 148/101/376
f 106/127/114 105/126/114 115/132/114
f 106/127/115 116/133/115 117/134/115
f 107/121/117 117/134/117 118/136/117
f 102/119/377 101/106/377 137/135/377
f 119/123/378 108/122/378 118/136/378
f 102/119/379 120/137/379 121/138/379
f 116/133/121 125/145/121 126/139/121
f 117/134/122 126/139/122 127/140/122
f 119/123/380 118/136/380 127/140/380
f 119/123/381 136/141/381 128/128/381
f 113/124/382 122/142/382 123/143/382
f 115/132/126 114/130/126 123/143/126
f 116/133/127 115/132/127 124/144/127
f 129/129/383 128/128/383 146/146/383
f 130/131/384 129/129/384 147/147/384
f 124/144/131 123/143/131 131/148/131
f 148/101/385 130/131/385 156/149/385
f 125/145/132 124/144/132 132/150/132
f 125/145/133 133/151/133 134/152/133
f 126/139/134 134/152/134 135/153/134
f 136/141/386 127/140/386 135/153/386
f 120/137/387 138/154/387 139/155/387
f 122/142/388 121/138/388 139/155/388
f 137/135/389 112/116/389 182/163/389
f 134/152/390 144/164/390 145/156/390
f 136/141/391 135/153/391 145/156/391
f 136/141/392 155/157/392 146/146/392
f 122/142/393 140/158/393 141/159/393
f 132/150/394 131/148/394 141/159/394
f 133/151/143 132/150/143 142/160/143
f 133/151/145 143/161/145 144/164/145
f 147/147/395 164/176/395 156/149/395
f 142/160/396 141/159/396 150/165/396
f 143/161/149 142/160/149 151/166/149
f 143/161/151 152/168/151 153/170/151
f 144/164/397 153/170/397 154/172/397
f 138/154/398 137/135/398 149/171/398
f 155/157/399 145/156/399 154/172/399
f 138/154/400 165/173/400 157/174/400
f 140/158/401 139/155/401 157/174/401
f 147/147/402 146/146/402 163/175/402
f 153/170/158 161/184/158 162/177/158
f 155/157/403 154/172/403 162/177/403
f 155/157/404 172/178/404 163/175/404
f 140/158/405 166/179/405 158/180/405
f 151/166/163 150/165/163 158/180/163
f 156/149/406 180/181/406 193/167/406
f 152/168/164 151/166/164 159/182/164
f 152/168/165 160/183/165 161/184/165
f 164/176/407 192/192/407 180/181/407
f 159/182/166 158/180/166 167/185/166
f 160/183/167 159/182/167 168/186/167
f 160/183/168 169/187/168 170/188/168
f 161/184/169 170/188/169 171/189/169
f 172/178/408 162/177/408 171/189/408
f 166/179/409 157/174/409 173/190/409
f 164/176/410 163/175/410 179/191/410
f 172/178/411 171/189/411 178/193/411
f 165/173/412 184/201/412 173/190/412
f 172/178/413 191/194/413 179/191/413
f 166/179/414 185/195/414 174/196/414
f 168/186/177 167/185/177 174/196/177
f 169/187/178 168/186/178 175/197/178
f 169/187/179 176/198/179 177/199/179
f 170/188/181 177/199/181 178/193/181
f 165/173/415 149/171/415 183/200/415
f 180/181/416 216/209/416 193/167/416
f 176/198/183 175/197/183 187/202/183
f 176/198/184 188/203/184 189/204/184
f 177/199/185 189/204/185 190/205/185
f 191/194/417 178/193/417 190/205/417
f 185/195/418 173/190/418 194/206/418
f 192/192/419 179/191/419 200/207/419
f 175/197/190 174/196/190 186/208/190
f 184/201/420 201/222/420 194/206/420
f 191/194/421 207/223/421 200/207/421
f 185/195/422 203/210/422 195/212/422
f 192/192/423 208/211/423 216/209/423
f 187/202/194 186/208/194 195/212/194
f 188/203/196 187/202/196 196/213/196
f 188/203/199 197/215/199 198/219/199
f 182/163/424 218/217/424 209/220/424
f 189/204/201 198/219/201 199/221/201
f 183/200/425 209/220/425 201/222/425
f 191/194/426 190/205/426 199/221/426
f 197/215/204 196/213/204 204/224/204
f 197/215/205 205/225/205 206/226/205
f 198/219/427 206/226/427 214/227/427
f 207/223/428 199/221/428 214/227/428
f 203/210/429 194/206/429 202/228/429
f 208/211/430 200/207/430 215/229/430
f 196/213/431 195/212/431 210/230/431
f 207/223/432 226/237/432 215/229/432
f 203/210/433 221/231/433 210/230/433
f 208/211/434 228/232/434 216/209/434
f 205/225/214 204/224/214 211/233/214
f 205/225/215 212/234/215 213/235/215
f 206/226/435 213/235/435 214/227/435
f 201/222/436 219/236/436 202/228/436
f 212/238/218 223/260/218 224/239/218
f 213/240/437 224/239/437 225/244/437
f 219/246/438 209/241/438 244/243/438
f 226/249/439 214/245/439 225/244/439
f 221/252/440 202/248/440 220/247/440
f 228/255/441 215/251/441 227/250/441
f 211/258/442 210/254/442 229/253/442
f 216/257/443 251/256/443 217/264/443
f 212/238/226 211/258/226 222/259/226
f 221/252/444 235/261/444 229/253/444
f 228/255/445 243/262/445 251/256/445
f 223/260/231 222/259/231 230/263/231
f 223/260/234 231/265/234 232/269/234
f 244/243/446 218/242/446 261/267/446
f 224/239/235 232/269/235 233/270/235
f 226/249/447 225/244/447 233/270/447
f 219/246/448 234/271/448 220/247/448
f 226/249/449 241/272/449 227/250/449
f 231/265/238 238/279/238 239/273/238
f 232/269/239 239/273/239 240/274/239
f 241/272/450 233/270/450 240/274/450
f 235/261/451 220/247/451 245/275/451
f 243/262/452 227/250/452 242/276/452
f 230/263/453 229/253/453 236/277/453
f 231/265/244 230/263/244 237/278/244
f 235/261/454 253/288/454 246/281/454
f 243/262/455 260/280/455 251/256/455
f 237/278/247 236/277/247 246/281/247
f 238/279/248 237/278/248 247/282/248
f 238/279/249 248/283/249 249/284/249
f 239/273/250 249/284/250 250/285/250
f 241/272/456 240/274/456 250/285/456
f 234/271/457 252/286/457 245/275/457
f 241/272/458 259/287/458 242/276/458
f 249/284/254 257/295/254 258/289/254
f 252/286/459 244/243/459 262/296/459
f 259/287/460 250/285/460 258/289/460
f 253/288/461 245/275/461 263/290/461
f 260/280/462 242/276/462 271/291/462
f 247/282/259 246/281/259 254/292/259
f 284/8/463 251/256/463 278/3/463
f 248/283/260 247/282/260 255/293/260
f 248/283/261 256/294/261 257/295/261
f 260/280/464 283/1/464 278/3/464
f 255/293/263 254/292/263 265/297/263
f 256/294/264 255/293/264 266/298/264
f 256/294/265 267/299/265 268/300/265
f 257/295/266 268/300/266 269/301/266
f 259/287/465 258/289/465 269/301/465
f 252/286/466 272/302/466 263/290/466
f 259/287/467 270/303/467 271/291/467
f 253/288/468 264/304/468 265/297/468
f 270/303/469 269/301/469 277/305/469
f 270/303/470 5/17/470 282/21/470
f 264/304/471 263/290/471 279/18/471
f 283/1/472 271/291/472 282/21/472
f 264/304/473 1/24/473 273/306/473
f 266/298/277 265/297/277 273/306/277
f 267/299/278 266/298/278 274/307/278
f 267/299/280 275/308/280 276/310/280
f 261/267/474 15/36/474 262/296/474
f 268/300/281 276/310/281 277/305/281
f 274/307/282 273/306/282 280/26/282
f 275/308/475 274/307/475 2/4/475
f 275/308/476 3/10/476 4/13/476
f 276/310/286 4/13/286 281/15/286
f 272/302/477 262/296/477 16/32/477
f 277/305/478 281/15/478 5/17/478
f 279/18/479 272/302/479 6/19/479
f 285/357/480 287/311/480 300/313/480
f 287/311/481 288/314/481 286/312/481
f 288/314/482 291/316/482 289/315/482
f 291/316/483 293/318/483 290/317/483
f 293/318/484 295/320/484 292/319/484
f 295/320/485 297/322/485 294/321/485
f 297/322/486 299/324/486 296/323/486
f 299/324/487 285/326/487 298/325/487
f 287/358/488 285/359/488 293/360/488
f 285/359/488 299/361/488 295/362/488
f 297/363/488 295/362/488 299/361/488
f 295/362/488 293/360/488 285/359/488
f 293/360/488 291/364/488 287/358/488
f 288/365/488 287/358/488 291/364/488
f 300/366/489 286/367/489 290/368/489
f 292/369/489 300/366/489 290/368/489
f 290/368/489 286/367/489 289/370/489
f 292/369/489 294/371/489 298/372/489
f 300/366/489 292/369/489 298/372/489
f 298/372/489 294/371/489 296/373/489
f 301/374/480 303/328/480 316/330/480
f 303/328/490 304/331/490 302/329/490
f 304/331/482 307/333/482 305/332/482
f 307/333/483 309/335/483 306/334/483
f 309/335/484 311/337/484 308/336/484
f 311/337/485 313/339/485 310/338/485
f 313/339/486 315/341/486 312/340/486
f 315/341/487 301/343/487 314/342/487
f 303/375/488 301/376/488 309/377/488
f 301/376/488 315/378/488 311/379/488
f 313/380/488 311/379/488 315/378/488
f 311/379/488 309/377/488 301/376/488
f 309/377/488 307/381/488 303/375/488
f 304/382/488 303/375/488 307/381/488
f 316/383/489 302/384/489 306/385/489
f 308/386/489 316/383/489 306/385/489
f 306/385/489 302/384/489 305/387/489
f 308/386/489 310/388/489 314/389/489
f 316/383/489 308/386/489 314/389/489
f 314/389/489 310/388/489 312/390/489
f 324/355/305 317/391/305 320/392/305
f 317/391/491 318/393/491 319/394/491
f 319/394/305 320/392/305 317/391/305
f 320/392/305 321/356/305 324/355/305
f 321/356/492 322/395/492 323/354/492
